<svg width="512" height="512" viewBox="0 0 512 512" fill="none" xmlns="http://www.w3.org/2000/svg">
<g clip-path="url(#clip0)">
<path d="M459.032 185.383C454.157 185.383 450.204 181.43 450.204 176.555V61.7944C450.204 52.0445 442.302 44.1422 432.552 44.1422H423.724C418.849 44.1422 414.896 40.1891 414.896 35.3141C414.896 30.4392 418.849 26.4861 423.724 26.4861H432.552C452.052 26.4861 467.86 42.2946 467.86 61.7944V176.555C467.86 181.43 463.907 185.383 459.032 185.383V185.383Z" fill="#802D40"/>
<path d="M512 247.176L511.996 493.737C512.137 503.643 504.25 511.803 494.344 511.998H17.6561C7.74993 511.803 -0.136737 503.643 -1.90368e-05 493.737V247.176H512Z" fill="#DDDDDD"/>
<path d="M479.903 211.863H17.6561C7.91791 211.895 0.0312498 219.781 0 229.519V256H511.996V229.519C511.996 219.809 497.555 211.863 479.903 211.863Z" fill="#D2D2D2"/>
<path d="M264.827 379.589H141.241C136.366 379.589 132.413 375.636 132.413 370.761C132.413 365.886 136.366 361.933 141.241 361.933H264.827C269.702 361.933 273.655 365.886 273.655 370.761C273.655 375.636 269.702 379.589 264.827 379.589Z" fill="black" fill-opacity="0.2"/>
<path d="M264.827 423.726H141.241C136.366 423.726 132.413 419.772 132.413 414.897C132.413 410.022 136.366 406.069 141.241 406.069H264.827C269.702 406.069 273.655 410.022 273.655 414.897C273.655 419.772 269.702 423.726 264.827 423.726Z" fill="black" fill-opacity="0.2"/>
<path d="M264.827 467.862H141.241C136.366 467.862 132.413 463.909 132.413 459.034C132.413 454.159 136.366 450.206 141.241 450.206H264.827C269.702 450.206 273.655 454.159 273.655 459.034C273.655 463.909 269.702 467.862 264.827 467.862Z" fill="black" fill-opacity="0.2"/>
<path d="M450.204 300.14H317.791C308.053 300.168 300.166 308.054 300.139 317.793V353.105C300.166 362.843 308.053 370.73 317.791 370.761H450.204C459.946 370.73 467.833 362.843 467.86 353.105V317.793C467.833 308.054 459.946 300.168 450.204 300.14Z" fill="white"/>
<path d="M467.86 467.862H308.967C304.092 467.862 300.139 463.909 300.139 459.034C300.139 454.159 304.092 450.206 308.967 450.206H467.86C472.735 450.206 476.688 454.159 476.688 459.034C476.688 463.909 472.735 467.862 467.86 467.862V467.862Z" fill="black" fill-opacity="0.2"/>
<path d="M361.931 388.413L388.412 459.034L414.896 388.413V361.933H361.931V388.413Z" fill="#F0C419"/>
<path d="M361.931 114.763H414.896V388.413H361.931V114.763Z" fill="#E64C3C"/>
<path d="M388.411 0.00170898C407.915 0.00170898 423.724 15.8141 423.724 35.314V158.899H353.103V35.314C353.103 15.8141 368.911 0.00170898 388.411 0.00170898V0.00170898Z" fill="#C03A2B"/>
</g>
<defs>
<clipPath id="clip0">
<rect width="512" height="512" fill="white"/>
</clipPath>
</defs>
</svg>
