<svg xmlns="http://www.w3.org/2000/svg" width="377.649" height="355.514" viewBox="0 0 377.649 355.514">
  <g id="give" transform="translate(-68.425 -28.405)">
    <ellipse id="Ellipse_51" data-name="Ellipse 51" cx="126.427" cy="8.777" rx="126.427" ry="8.777" transform="translate(193.22 366.364)" fill="#008c9a"/>
    <g id="Group_168" data-name="Group 168" transform="translate(68.425 28.405)">
      <g id="Group_158" data-name="Group 158" transform="translate(87.411 97.608)">
        <path id="Path_597" data-name="Path 597" d="M172.42,132.492,161.579,152.85s-6.174-9.063-5.719-16.3c.466-7.425,4.464-11.511,10.282-10.332C171.184,127.236,172.42,132.492,172.42,132.492Z" transform="translate(-155.836 -126.013)" fill="#9d0d11"/>
        <path id="Path_598" data-name="Path 598" d="M172.42,132.492,161.579,152.85s10.968.066,16.721-4.353c5.9-4.532,7.06-10.13,2.835-14.3C177.473,130.586,172.42,132.492,172.42,132.492Z" transform="translate(-155.836 -126.013)" fill="#790d0c"/>
      </g>
      <g id="Group_159" data-name="Group 159" transform="translate(14.844 76.081)">
        <path id="Path_599" data-name="Path 599" d="M92.94,109.55l8.18,17.4s-9.136-.4-13.743-4.322c-4.725-4.019-5.458-8.73-1.764-12.025C88.811,107.752,92.94,109.55,92.94,109.55Z" transform="translate(-83.269 -104.487)" fill="#9d0d11"/>
        <path id="Path_600" data-name="Path 600" d="M92.94,109.55l8.18,17.4s5.521-7.29,5.444-13.339c-.081-6.2-3.239-9.773-8.133-9.033C94.189,105.224,92.94,109.55,92.94,109.55Z" transform="translate(-83.269 -104.487)" fill="#790d0c"/>
      </g>
      <g id="Group_160" data-name="Group 160" transform="translate(78.82 14.632)">
        <path id="Path_601" data-name="Path 601" d="M156.917,48.1,165.1,65.5s-9.136-.4-13.742-4.322c-4.727-4.019-5.458-8.729-1.766-12.025C152.788,46.3,156.917,48.1,156.917,48.1Z" transform="translate(-147.245 -43.037)" fill="#9d0d11"/>
        <path id="Path_602" data-name="Path 602" d="M156.917,48.1,165.1,65.5s5.52-7.29,5.443-13.339c-.08-6.2-3.238-9.772-8.132-9.033C158.166,43.774,156.917,48.1,156.917,48.1Z" transform="translate(-147.245 -43.037)" fill="#790d0c"/>
      </g>
      <g id="Group_161" data-name="Group 161" transform="translate(58.376 69.995)">
        <path id="Path_603" data-name="Path 603" d="M134.381,100.888l-3.548,10.493s-3.633-3.813-3.982-7.279c-.359-3.555,1.216-5.8,4.065-5.7A4.185,4.185,0,0,1,134.381,100.888Z" transform="translate(-126.8 -98.4)" fill="#9d0d11"/>
        <path id="Path_604" data-name="Path 604" d="M134.381,100.888l-3.548,10.493s5.2-.826,7.584-3.368c2.441-2.609,2.554-5.351.226-7A4.186,4.186,0,0,0,134.381,100.888Z" transform="translate(-126.8 -98.4)" fill="#790d0c"/>
      </g>
      <g id="Group_162" data-name="Group 162" transform="translate(131.792 42.74)">
        <path id="Path_605" data-name="Path 605" d="M209.888,76.209l8.179,17.406s-9.135-.4-13.742-4.323c-4.726-4.02-5.458-8.729-1.765-12.025C205.759,74.411,209.888,76.209,209.888,76.209Z" transform="translate(-200.216 -71.146)" fill="#9d0d11"/>
        <path id="Path_606" data-name="Path 606" d="M209.888,76.209l8.179,17.406s5.521-7.291,5.444-13.34c-.079-6.2-3.239-9.773-8.133-9.033C211.137,71.884,209.888,76.209,209.888,76.209Z" transform="translate(-200.216 -71.146)" fill="#790d0c"/>
      </g>
      <g id="Group_163" data-name="Group 163" transform="translate(178.305)">
        <path id="Path_607" data-name="Path 607" d="M260.991,34.571,250.134,50.446s-4.284-8.08-3.24-14.038c1.07-6.111,4.758-9.13,9.471-7.617C260.449,30.1,260.991,34.571,260.991,34.571Z" transform="translate(-246.73 -28.405)" fill="#9d0d11"/>
        <path id="Path_608" data-name="Path 608" d="M260.991,34.571,250.134,50.446s9.083,1.062,14.258-2.071c5.307-3.213,6.782-7.745,3.664-11.588C265.354,33.456,260.991,34.571,260.991,34.571Z" transform="translate(-246.73 -28.405)" fill="#790d0c"/>
      </g>
      <g id="Group_164" data-name="Group 164" transform="translate(133.102 5.177)">
        <path id="Path_609" data-name="Path 609" d="M209.107,36.07l-3.548,10.493s-3.633-3.812-3.982-7.279c-.36-3.554,1.215-5.8,4.064-5.7A4.187,4.187,0,0,1,209.107,36.07Z" transform="translate(-201.526 -33.582)" fill="#9d0d11"/>
        <path id="Path_610" data-name="Path 610" d="M209.107,36.07l-3.548,10.493s5.2-.825,7.582-3.367c2.443-2.61,2.555-5.351.227-7A4.185,4.185,0,0,0,209.107,36.07Z" transform="translate(-201.526 -33.582)" fill="#790d0c"/>
      </g>
      <g id="Group_165" data-name="Group 165" transform="translate(0 131.23)">
        <path id="Path_611" data-name="Path 611" d="M74.364,162.123l3.549,10.492s3.632-3.811,3.981-7.278c.36-3.555-1.216-5.8-4.064-5.7A4.185,4.185,0,0,0,74.364,162.123Z" transform="translate(-68.425 -159.635)" fill="#9d0d11"/>
        <path id="Path_612" data-name="Path 612" d="M74.364,162.123l3.549,10.492s-5.2-.825-7.584-3.367c-2.442-2.609-2.555-5.352-.226-7A4.184,4.184,0,0,1,74.364,162.123Z" transform="translate(-68.425 -159.635)" fill="#790d0c"/>
      </g>
      <g id="Group_166" data-name="Group 166" transform="translate(210.112 28.556)">
        <path id="Path_613" data-name="Path 613" d="M290.3,59.532l.524,19.225s7.977-4.469,10.329-10.043c2.412-5.715.947-10.252-3.833-11.533C293.181,56.069,290.3,59.532,290.3,59.532Z" transform="translate(-278.537 -56.961)" fill="#9d0d11"/>
        <path id="Path_614" data-name="Path 614" d="M290.3,59.532l.524,19.225s-8.21-4.028-10.863-9.464c-2.719-5.577-1.5-10.185,3.2-11.727C287.241,56.231,290.3,59.532,290.3,59.532Z" transform="translate(-278.537 -56.961)" fill="#790d0c"/>
      </g>
      <g id="Group_167" data-name="Group 167" transform="translate(160.617 91.278)">
        <path id="Path_615" data-name="Path 615" d="M234.981,122.171l3.548,10.494s3.633-3.813,3.983-7.28c.359-3.553-1.217-5.8-4.065-5.7A4.189,4.189,0,0,0,234.981,122.171Z" transform="translate(-229.042 -119.684)" fill="#9d0d11"/>
        <path id="Path_616" data-name="Path 616" d="M234.981,122.171l3.548,10.494s-5.2-.825-7.583-3.368c-2.442-2.609-2.554-5.352-.227-7A4.19,4.19,0,0,1,234.981,122.171Z" transform="translate(-229.042 -119.684)" fill="#790d0c"/>
      </g>
    </g>
    <g id="Group_170" data-name="Group 170" transform="translate(229.617 203.67)">
      <rect id="Rectangle_30" data-name="Rectangle 30" width="197.328" height="114.063" transform="translate(5.639 55.756)" fill="#ca6c42"/>
      <rect id="Rectangle_31" data-name="Rectangle 31" width="197.328" height="14.653" transform="translate(5.639 55.756)" fill="#ad5f3a"/>
      <rect id="Rectangle_32" data-name="Rectangle 32" width="208.605" height="14.481" transform="translate(0 45.706)" fill="#ca6c42"/>
      <path id="Path_617" data-name="Path 617" d="M398.223,209.376H189.617l44.342-45.706H356.9Z" transform="translate(-189.617 -163.67)" fill="#d08848"/>
      <path id="Path_618" data-name="Path 618" d="M265.413,182.1l-6.651,6.855h70.315l-6.2-6.855Z" transform="translate(-189.617 -163.67)" fill="#a04a2e"/>
      <path id="Path_619" data-name="Path 619" d="M267.671,184.72h57.59L322.88,182.1H265.413l-6.651,6.855h4.8Z" transform="translate(-189.617 -163.67)" fill="#6a2f22"/>
      <path id="Path_620" data-name="Path 620" d="M305.908,254.035c-11.781-3.508-20.292,6.187-20.292,6.187s-8.511-9.695-20.292-6.187c-13.59,4.046-17.43,17.152-10.077,33.334,7.17,15.777,30.369,27.955,30.369,27.955s23.2-12.178,30.369-27.955C323.339,271.187,319.5,258.081,305.908,254.035Z" transform="translate(-189.617 -163.67)" fill="#6a2f22"/>
      <g id="Group_169" data-name="Group 169" transform="translate(66.757 86.39)">
        <path id="Path_621" data-name="Path 621" d="M290.419,257.013v55.1s-23.2-12.177-30.368-27.954c-7.355-16.183-3.514-29.288,10.076-33.335C281.908,247.318,290.419,257.013,290.419,257.013Z" transform="translate(-256.374 -250.06)" fill="#9d0d11"/>
        <path id="Path_622" data-name="Path 622" d="M290.419,257.013v55.1s23.2-12.177,30.369-27.954c7.354-16.183,3.512-29.288-10.078-33.335C298.93,247.318,290.419,257.013,290.419,257.013Z" transform="translate(-256.374 -250.06)" fill="#790d0c"/>
      </g>
    </g>
    <g id="Group_172" data-name="Group 172" transform="translate(300.417 40.109)">
      <path id="Path_623" data-name="Path 623" d="M328.1,152.26c-9.555,5.535-28.051,1.841-28.051,1.841l.393-15.77,28.649-6.6S337.655,146.725,328.1,152.26Z" transform="translate(-260.417 -40.109)" fill="#b77355"/>
      <path id="Path_624" data-name="Path 624" d="M341.539,136.875c-7.762,6.7-25.929,8-25.929,8L313.819,129.2l24.636-10.174S349.3,130.18,341.539,136.875Z" transform="translate(-260.417 -40.109)" fill="#b77355"/>
      <path id="Path_625" data-name="Path 625" d="M348.82,124.407c-7.762,6.7-25.929,8-25.929,8L321.1,116.73l24.635-10.173S356.581,117.712,348.82,124.407Z" transform="translate(-260.417 -40.109)" fill="#b77355"/>
      <path id="Path_626" data-name="Path 626" d="M359.227,61.182l20.915,21.73-45.835,27.616-24.672,16.32s-1.115,13.846,4.588,17.564c9.426,6.147.135,21.332-11.9,16.717s-31.38-19.791-29.074-30.124,21.922-38.973,27.218-43.778C310.128,78.451,359.227,61.182,359.227,61.182Z" transform="translate(-260.417 -40.109)" fill="#f7a880"/>
      <path id="Path_627" data-name="Path 627" d="M367.2,85.788c-10.377.428-20.7.987-31.027,2.145A3.509,3.509,0,0,1,332.486,86a33.415,33.415,0,0,0-14.514,11.633c-4.92,6.664-9.421,13.136-15.412,18.906-4.7,4.523-10.98,9.8-11.381,16.837-.037.647-.246,4.6.9,4.763,1.774.245,3.622-.6,5.193-1.325,4.074-1.886,7.728-4.509,11.73-6.524a4.336,4.336,0,0,1,.551-.229c-.019-1.912.085-3.218.085-3.218l24.672-16.32,41.333-24.9c-.56-.067-1.116-.141-1.676-.213C371.659,85.534,369.383,85.7,367.2,85.788Z" transform="translate(-260.417 -40.109)" fill="#d59271"/>
      <path id="Path_628" data-name="Path 628" d="M307.446,100.9,320.1,119.515l3.579-1.958Z" transform="translate(-260.417 -40.109)" fill="#b77355"/>
      <path id="Path_629" data-name="Path 629" d="M278.872,134.278l22.463,1.5L302,131.75Z" transform="translate(-260.417 -40.109)" fill="#b77355"/>
      <g id="Group_171" data-name="Group 171" transform="translate(0 79.677)">
        <path id="Path_630" data-name="Path 630" d="M284.107,138.023l32.522,43.385s-25.454,4.106-40.412-4.087c-15.341-8.4-20.051-20.988-11.74-32.193C271.683,135.414,284.107,138.023,284.107,138.023Z" transform="translate(-260.417 -119.786)" fill="#9d0d11"/>
        <path id="Path_631" data-name="Path 631" d="M284.107,138.023l32.522,43.385s11.08-23.281,7.412-39.936c-3.763-17.082-14.522-25.135-27.611-20.3C285.085,125.366,284.107,138.023,284.107,138.023Z" transform="translate(-260.417 -119.786)" fill="#790d0c"/>
      </g>
      <path id="Path_632" data-name="Path 632" d="M332.2,83.6l47.947-.69s-17.759,11.151-20.264,15.871c-3.859,7.27-1.7,12.232-13.368,21.172-10.777,8.256-26.686,18.6-40.06,24.938-10.457,4.952-20.3-3.219-12.333-11.489,6.276-6.514,14.791-12.96,20.064-17.621S318.556,93.043,332.2,83.6Z" transform="translate(-260.417 -40.109)" fill="#f7a880"/>
      <path id="Path_633" data-name="Path 633" d="M381.816,40.109l-33.352,20.3,23.974,33.069,9.378-4.615Z" transform="translate(-260.417 -40.109)" fill="#dc1e29"/>
    </g>
  </g>
</svg>
