<svg width="1237" height="272" viewBox="0 0 1237 272" fill="none" xmlns="http://www.w3.org/2000/svg">
<path d="M44.9692 186L34.5 183.5V211C34.5 211 34.4463 213.783 34.0307 215.5C33.7393 216.704 32.5 219.5 32.5 219.5C32.5 219.5 27.3692 230.7 28.9692 243.5C30.5692 256.3 39.3025 267.5 43.4692 271.5C47.0692 270.3 52.6359 255.667 54.9692 248.5C54.1359 248.833 51.6692 247.7 48.4692 240.5C45.2692 233.3 44.8025 221.167 44.9692 216V186Z" fill="#DA251C"/>
<path d="M79.9692 181.5C68.3692 188.3 54.4692 188.333 48.9692 187.5C48.6359 195.833 48.1692 214.5 48.9692 222.5C49.9692 232.5 59.4692 241.5 60.9692 242C62.1692 242.4 66.1359 238.833 67.9692 237V225L77.4692 213.5C79.4692 207.5 77.3026 203.667 75.9692 202.5C66.7692 209.3 63.8026 209.333 63.4692 208.5V203.5C63.8026 203.5 65.8692 202.5 71.4692 198.5C77.0692 194.5 79.4692 189.833 79.9692 188V181.5Z" fill="#DA251C"/>
<path d="M63.4692 69C43.8692 35.8 45.6359 9.16667 48.9692 0C46.6359 1.5 39.0692 12.6 27.4692 45C15.8692 77.4 20.9692 114.833 24.9692 129.5C27.4692 136.167 31.4692 149.5 27.4692 149.5C22.4692 149.5 19.9692 144 16.9692 133C14.5693 124.2 13.9692 90 13.9692 74C12.3026 78 7.56921 91.9 1.96921 115.5C-5.03079 145 7.96921 172.5 19.9692 188C29.5692 200.4 30.6359 211.833 29.9692 216C33.4692 206.5 31.4692 188.5 29.9692 183.5C28.7692 179.5 32.8025 178.167 34.9692 178C39.6359 179.667 51.3692 182.8 60.9692 182C72.9692 181 90.4692 179 92.9692 146C95.4692 113 87.9692 110.5 63.4692 69Z" fill="#DA251C"/>
<path d="M187.827 214.938V232H176.682V214.8L158.037 183.84H169.87L182.736 205.237L195.602 183.84H206.541L187.827 214.938ZM248.023 223.056V232H210.734V183.84H247.129V192.784H221.811V203.242H244.171V211.91H221.811V223.056H248.023ZM256.892 183.84H268.037V222.918H292.186V232H256.892V183.84ZM330.533 221.68H308.173L303.908 232H292.487L313.953 183.84H324.961L346.495 232H334.799L330.533 221.68ZM327.025 213.218L319.388 194.779L311.751 213.218H327.025ZM395.661 183.84V232H384.516V212.254H362.637V232H351.492V183.84H362.637V202.829H384.516V183.84H395.661ZM438.773 221.68H416.413L412.147 232H400.726L422.192 183.84H433.2L454.734 232H443.038L438.773 221.68ZM435.264 213.218L427.627 194.779L419.99 213.218H435.264ZM503.9 183.84V232H494.75L470.739 202.76V232H459.731V183.84H468.95L492.892 213.08V183.84H503.9ZM532.839 213.08L526.372 219.822V232H515.295V183.84H526.372V206.338L547.7 183.84H560.084L540.132 205.306L561.253 232H548.25L532.839 213.08ZM595.79 221.68H573.43L569.164 232H557.743L579.209 183.84H590.217L611.751 232H600.055L595.79 221.68ZM592.281 213.218L584.644 194.779L577.007 213.218H592.281Z" fill="white"/>
<path d="M221.93 46.24V107H210.386L180.092 70.11V107H166.204V46.24H177.836L208.042 83.13V46.24H221.93ZM283.351 95.716V107H236.306V46.24H282.223V57.524H250.28V70.7176H278.49V81.6544H250.28V95.716H283.351ZM385.526 46.24L365.649 107H350.546L337.179 65.8568L323.378 107H308.361L288.397 46.24H302.98L316.694 88.9456L331.016 46.24H344.036L357.924 89.2928L372.072 46.24H385.526ZM419.23 46.24H433.291V95.5424H463.758V107H419.23V46.24ZM471.615 46.24H485.677V107H471.615V46.24ZM514.158 57.524V73.582H542.281V84.866H514.158V107H500.096V46.24H546.013V57.524H514.158ZM602.579 95.716V107H555.533V46.24H601.45V57.524H569.508V70.7176H597.718V81.6544H569.508V95.716H602.579ZM652.411 57.524V73.582H680.534V84.866H652.411V107H638.349V46.24H684.266V57.524H652.411ZM740.831 95.716V107H693.786V46.24H739.703V57.524H707.761V70.7176H735.971V81.6544H707.761V95.716H740.831ZM752.02 46.24H766.081V95.5424H796.548V107H752.02V46.24ZM804.405 46.24H818.466V95.5424H848.933V107H804.405V46.24ZM885.198 108.042C878.89 108.042 873.191 106.682 868.098 103.962C863.064 101.242 859.1 97.5099 856.207 92.7648C853.371 87.9619 851.954 82.5803 851.954 76.62C851.954 70.6597 853.371 65.3071 856.207 60.562C859.1 55.7591 863.064 51.9977 868.098 49.278C873.191 46.5583 878.89 45.1984 885.198 45.1984C891.505 45.1984 897.176 46.5583 902.211 49.278C907.245 51.9977 911.209 55.7591 914.102 60.562C916.996 65.3071 918.442 70.6597 918.442 76.62C918.442 82.5803 916.996 87.9619 914.102 92.7648C911.209 97.5099 907.245 101.242 902.211 103.962C897.176 106.682 891.505 108.042 885.198 108.042ZM885.198 96.0632C888.786 96.0632 892.026 95.2531 894.92 93.6328C897.813 91.9547 900.07 89.64 901.69 86.6888C903.368 83.7376 904.207 80.3813 904.207 76.62C904.207 72.8587 903.368 69.5024 901.69 66.5512C900.07 63.6 897.813 61.3143 894.92 59.694C892.026 58.0159 888.786 57.1768 885.198 57.1768C881.61 57.1768 878.37 58.0159 875.476 59.694C872.583 61.3143 870.297 63.6 868.619 66.5512C866.999 69.5024 866.189 72.8587 866.189 76.62C866.189 80.3813 866.999 83.7376 868.619 86.6888C870.297 89.64 872.583 91.9547 875.476 93.6328C878.37 95.2531 881.61 96.0632 885.198 96.0632ZM1018.81 46.24L998.933 107H983.83L970.463 65.8568L956.661 107H941.645L921.681 46.24H936.263L949.978 88.9456L964.3 46.24H977.32L991.208 89.2928L1005.36 46.24H1018.81ZM1046.62 108.042C1041.82 108.042 1037.16 107.405 1032.65 106.132C1028.19 104.801 1024.61 103.094 1021.89 101.011L1026.66 90.4212C1029.26 92.3308 1032.36 93.8643 1035.95 95.0216C1039.54 96.1789 1043.12 96.7576 1046.71 96.7576C1050.7 96.7576 1053.66 96.1789 1055.56 95.0216C1057.47 93.8064 1058.43 92.2151 1058.43 90.2476C1058.43 88.8009 1057.85 87.6147 1056.69 86.6888C1055.59 85.7051 1054.15 84.9239 1052.35 84.3452C1050.62 83.7665 1048.24 83.13 1045.24 82.4356C1040.61 81.3361 1036.82 80.2367 1033.86 79.1372C1030.91 78.0377 1028.37 76.2728 1026.23 73.8424C1024.14 71.412 1023.1 68.1715 1023.1 64.1208C1023.1 60.5909 1024.06 57.4083 1025.97 54.5728C1027.88 51.6795 1030.74 49.3937 1034.56 47.7156C1038.44 46.0375 1043.15 45.1984 1048.71 45.1984C1052.58 45.1984 1056.37 45.6613 1060.08 46.5872C1063.78 47.5131 1067.02 48.844 1069.8 50.58L1065.46 61.2564C1059.85 58.0737 1054.23 56.4824 1048.62 56.4824C1044.69 56.4824 1041.76 57.1189 1039.85 58.392C1038 59.6651 1037.08 61.3432 1037.08 63.4264C1037.08 65.5096 1038.15 67.072 1040.29 68.1136C1042.49 69.0973 1045.81 70.0811 1050.27 71.0648C1054.9 72.1643 1058.69 73.2637 1061.64 74.3632C1064.59 75.4627 1067.11 77.1987 1069.19 79.5712C1071.33 81.9437 1072.4 85.1553 1072.4 89.206C1072.4 92.678 1071.42 95.8607 1069.45 98.754C1067.54 101.589 1064.65 103.846 1060.77 105.524C1056.9 107.203 1052.18 108.042 1046.62 108.042ZM1137.74 46.24V107H1123.68V82.0884H1096.07V107H1082.01V46.24H1096.07V70.1968H1123.68V46.24H1137.74ZM1152.11 46.24H1166.17V107H1152.11V46.24ZM1206.9 46.24C1212.28 46.24 1216.93 47.1369 1220.87 48.9308C1224.86 50.7247 1227.93 53.2708 1230.07 56.5692C1232.21 59.8676 1233.28 63.7736 1233.28 68.2872C1233.28 72.7429 1232.21 76.6489 1230.07 80.0052C1227.93 83.3036 1224.86 85.8497 1220.87 87.6436C1216.93 89.3796 1212.28 90.2476 1206.9 90.2476H1194.66V107H1180.59V46.24H1206.9ZM1206.11 78.79C1210.34 78.79 1213.55 77.8931 1215.75 76.0992C1217.95 74.2475 1219.05 71.6435 1219.05 68.2872C1219.05 64.8731 1217.95 62.2691 1215.75 60.4752C1213.55 58.6235 1210.34 57.6976 1206.11 57.6976H1194.66V78.79H1206.11Z" fill="white"/>
<rect x="159" y="142" width="453" height="10" fill="#DA251C"/>
</svg>
