<svg width="619" height="349" viewBox="0 0 619 349" fill="none" xmlns="http://www.w3.org/2000/svg">
<path d="M57.7608 239.179L44.3136 235.968V271.291C44.3136 271.291 44.2447 274.865 43.7109 277.071C43.3366 278.617 41.7447 282.209 41.7447 282.209C41.7447 282.209 35.1545 296.594 37.2096 313.035C39.2647 329.476 50.4823 343.862 55.8342 349C60.4582 347.459 67.6083 328.663 70.6054 319.458C69.535 319.886 66.3667 318.43 62.2564 309.182C58.1462 299.934 57.5468 284.349 57.7608 277.713V239.179Z" fill="#DA251C"/>
<path d="M102.717 233.399C87.817 242.134 69.9632 242.176 62.8987 241.106C62.4705 251.81 61.8711 275.786 62.8987 286.062C64.1831 298.906 76.3854 310.466 78.3121 311.109C79.8534 311.623 84.9484 307.041 87.3032 304.686V289.273L99.5055 274.502C102.074 266.795 99.2915 261.871 97.5789 260.373C85.7619 269.107 81.9514 269.15 81.5232 268.08V261.657C81.9514 261.657 84.6059 260.373 91.7988 255.235C98.9918 250.097 102.074 244.103 102.717 241.748V233.399Z" fill="#DA251C"/>
<path d="M81.5231 88.8986C56.3479 46.2548 58.6171 12.0456 62.8986 0.271484C59.9015 2.19816 50.1825 16.4556 35.2829 58.0718C20.3833 99.688 26.934 147.769 32.0718 166.608C35.2829 175.171 40.4207 192.297 35.2829 192.297C28.8606 192.297 25.6495 185.232 21.7962 171.104C18.7135 159.8 17.9428 115.872 17.9428 95.3209C15.802 100.459 9.72229 118.313 2.52936 148.626C-6.4618 186.517 10.2361 221.839 25.6495 241.748C37.9802 257.676 39.3503 272.361 38.494 277.713C42.9895 265.511 40.4207 242.391 38.494 235.968C36.9526 230.831 42.1333 229.118 44.9162 228.904C50.9103 231.045 65.9812 235.069 78.312 234.042C93.7254 232.757 116.203 230.188 119.414 187.801C122.626 145.414 112.992 142.203 81.5231 88.8986Z" fill="#DA251C"/>
<path d="M204.927 236.344V253H194.046V236.21L175.845 205.987H187.397L199.957 226.874L212.516 205.987H223.195L204.927 236.344Z" fill="white"/>
<path d="M263.69 244.269V253H227.288V205.987H262.816V214.718H238.101V224.926H259.928V233.389H238.101V244.269H263.69Z" fill="white"/>
<path d="M272.347 205.987H283.227V244.135H306.801V253H272.347V205.987Z" fill="white"/>
<path d="M344.235 242.926H322.407L318.243 253H307.094L328.049 205.987H338.795L359.817 253H348.399L344.235 242.926ZM340.81 234.665L333.355 216.665L325.9 234.665H340.81Z" fill="white"/>
<path d="M407.812 205.987V253H396.932V233.725H375.574V253H364.694V205.987H375.574V224.523H396.932V205.987H407.812Z" fill="white"/>
<path d="M449.897 242.926H428.069L423.905 253H412.756L433.711 205.987H444.457L465.479 253H454.061L449.897 242.926ZM446.472 234.665L439.017 216.665L431.562 234.665H446.472Z" fill="white"/>
<path d="M513.474 205.987V253H504.542L481.102 224.456V253H470.356V205.987H479.356L502.728 234.531V205.987H513.474Z" fill="white"/>
<path d="M541.724 234.531L535.41 241.112V253H524.597V205.987H535.41V227.949L556.231 205.987H568.32L548.843 226.941L569.461 253H556.768L541.724 234.531Z" fill="white"/>
<path d="M603.176 242.926H581.348L577.184 253H566.035L586.99 205.987H597.736L618.757 253H607.34L603.176 242.926ZM599.75 234.665L592.295 216.665L584.84 234.665H599.75Z" fill="white"/>
<path d="M233.93 17.24V78H222.386L192.092 41.11V78H178.204V17.24H189.836L220.042 54.13V17.24H233.93Z" fill="white"/>
<path d="M295.351 66.716V78H248.306V17.24H294.223V28.524H262.28V41.7176H290.49V52.6544H262.28V66.716H295.351Z" fill="white"/>
<path d="M397.526 17.24L377.649 78H362.546L349.179 36.8568L335.378 78H320.361L300.397 17.24H314.98L328.694 59.9456L343.016 17.24H356.036L369.924 60.2928L384.072 17.24H397.526Z" fill="white"/>
<path d="M431.23 17.24H445.291V66.5424H475.758V78H431.23V17.24Z" fill="white"/>
<path d="M483.615 17.24H497.677V78H483.615V17.24Z" fill="white"/>
<path d="M526.158 28.524V44.582H554.281V55.866H526.158V78H512.096V17.24H558.013V28.524H526.158Z" fill="white"/>
<path d="M614.579 66.716V78H567.533V17.24H613.45V28.524H581.508V41.7176H609.718V52.6544H581.508V66.716H614.579Z" fill="white"/>
<path d="M186.721 129.424V141.295H207.512V149.637H186.721V166H176.326V121.082H210.271V129.424H186.721Z" fill="white"/>
<path d="M252.089 157.658V166H217.309V121.082H251.254V129.424H227.64V139.177H248.495V147.263H227.64V157.658H252.089Z" fill="white"/>
<path d="M260.36 121.082H270.755V157.53H293.279V166H260.36V121.082Z" fill="white"/>
<path d="M299.087 121.082H309.482V157.53H332.006V166H299.087V121.082Z" fill="white"/>
<path d="M358.815 166.77C354.152 166.77 349.938 165.765 346.174 163.754C342.452 161.743 339.522 158.984 337.383 155.476C335.286 151.926 334.238 147.947 334.238 143.541C334.238 139.135 335.286 135.177 337.383 131.67C339.522 128.119 342.452 125.338 346.174 123.328C349.938 121.317 354.152 120.312 358.815 120.312C363.478 120.312 367.67 121.317 371.392 123.328C375.114 125.338 378.044 128.119 380.183 131.67C382.322 135.177 383.392 139.135 383.392 143.541C383.392 147.947 382.322 151.926 380.183 155.476C378.044 158.984 375.114 161.743 371.392 163.754C367.67 165.765 363.478 166.77 358.815 166.77ZM358.815 157.915C361.467 157.915 363.863 157.316 366.002 156.118C368.141 154.877 369.809 153.166 371.007 150.984C372.248 148.803 372.868 146.321 372.868 143.541C372.868 140.76 372.248 138.279 371.007 136.097C369.809 133.915 368.141 132.226 366.002 131.028C363.863 129.787 361.467 129.167 358.815 129.167C356.163 129.167 353.767 129.787 351.628 131.028C349.489 132.226 347.799 133.915 346.559 136.097C345.361 138.279 344.762 140.76 344.762 143.541C344.762 146.321 345.361 148.803 346.559 150.984C347.799 153.166 349.489 154.877 351.628 156.118C353.767 157.316 356.163 157.915 358.815 157.915Z" fill="white"/>
<path d="M457.591 121.082L442.897 166H431.731L421.849 135.584L411.646 166H400.545L385.786 121.082H396.567L406.705 152.653L417.293 121.082H426.918L437.186 152.909L447.645 121.082H457.591Z" fill="white"/>
<path d="M478.153 166.77C474.603 166.77 471.159 166.299 467.822 165.358C464.528 164.374 461.876 163.112 459.865 161.572L463.395 153.744C465.32 155.155 467.608 156.289 470.261 157.145C472.913 158 475.565 158.428 478.218 158.428C481.169 158.428 483.351 158 484.763 157.145C486.175 156.246 486.88 155.07 486.88 153.615C486.88 152.546 486.453 151.669 485.597 150.984C484.784 150.257 483.715 149.68 482.389 149.252C481.105 148.824 479.351 148.353 477.127 147.84C473.704 147.027 470.902 146.215 468.721 145.402C466.539 144.589 464.657 143.284 463.074 141.487C461.534 139.691 460.764 137.295 460.764 134.3C460.764 131.691 461.469 129.338 462.881 127.242C464.293 125.103 466.41 123.413 469.234 122.173C472.1 120.932 475.587 120.312 479.693 120.312C482.56 120.312 485.362 120.654 488.1 121.338C490.837 122.023 493.233 123.007 495.287 124.29L492.078 132.183C487.928 129.83 483.779 128.654 479.629 128.654C476.72 128.654 474.56 129.124 473.148 130.065C471.779 131.006 471.095 132.247 471.095 133.787C471.095 135.327 471.886 136.482 473.469 137.252C475.095 137.98 477.555 138.707 480.849 139.434C484.271 140.247 487.073 141.06 489.255 141.872C491.436 142.685 493.297 143.969 494.837 145.723C496.42 147.477 497.212 149.851 497.212 152.845C497.212 155.412 496.484 157.765 495.03 159.904C493.618 162 491.479 163.668 488.613 164.909C485.747 166.15 482.26 166.77 478.153 166.77Z" fill="white"/>
<path d="M545.511 121.082V166H535.116V147.583H514.71V166H504.315V121.082H514.71V138.792H535.116V121.082H545.511Z" fill="white"/>
<path d="M556.139 121.082H566.534V166H556.139V121.082Z" fill="white"/>
<path d="M596.637 121.082C600.616 121.082 604.06 121.745 606.969 123.071C609.92 124.397 612.188 126.279 613.771 128.718C615.353 131.156 616.145 134.044 616.145 137.381C616.145 140.675 615.353 143.562 613.771 146.043C612.188 148.482 609.92 150.364 606.969 151.69C604.06 152.974 600.616 153.615 596.637 153.615H587.59V166H577.194V121.082H596.637ZM596.06 145.145C599.183 145.145 601.557 144.482 603.183 143.156C604.808 141.787 605.621 139.862 605.621 137.381C605.621 134.857 604.808 132.932 603.183 131.605C601.557 130.236 599.183 129.552 596.06 129.552H587.59V145.145H596.06Z" fill="white"/>
<path fill-rule="evenodd" clip-rule="evenodd" d="M177.872 297.014C174.802 299.35 173.267 302.737 173.267 307.176V315.585C173.267 320.224 174.769 323.711 177.772 326.047C180.776 328.349 184.88 329.501 190.086 329.501C195.325 329.501 199.513 328.316 202.65 325.947C205.787 323.544 207.355 320.14 207.355 315.735V309.228C207.355 308.861 207.222 308.544 206.955 308.277C206.688 308.01 206.371 307.876 206.004 307.876H192.238C191.871 307.876 191.554 308.01 191.287 308.277C191.02 308.544 190.887 308.861 190.887 309.228V314.784C190.887 315.151 191.02 315.468 191.287 315.735C191.554 316.002 191.871 316.136 192.238 316.136H194.591C194.591 317.006 194.407 317.719 194.039 318.274C193.391 319.251 192.174 319.74 190.386 319.74C187.65 319.74 186.282 318.321 186.282 315.485V306.975C186.282 304.473 187.567 303.221 190.136 303.221C190.77 303.221 191.471 303.371 192.238 303.672C192.572 303.805 193.073 304.306 193.74 305.173C194.04 305.54 194.524 305.724 195.192 305.724H206.254C206.554 305.724 206.805 305.624 207.005 305.424C207.238 305.19 207.355 304.923 207.355 304.623C207.355 301.486 205.77 298.85 202.6 296.714C199.43 294.545 195.275 293.46 190.136 293.46C185.03 293.46 180.942 294.645 177.872 297.014ZM195.213 303.585C194.927 303.228 194.647 302.906 194.376 302.635C194.081 302.34 193.62 301.921 193.033 301.686L193.025 301.683L193.018 301.68C192.073 301.31 191.103 301.082 190.136 301.082C188.536 301.082 186.94 301.472 185.753 302.628C184.556 303.794 184.143 305.38 184.143 306.975V315.485C184.143 317.214 184.559 318.907 185.769 320.161C186.992 321.429 188.669 321.878 190.386 321.878C192.044 321.878 193.686 321.53 194.932 320.463C196.241 319.341 196.73 317.76 196.73 316.136V313.997H193.026V310.015H205.217V315.735C205.217 319.559 203.894 322.297 201.355 324.244C198.696 326.25 195.01 327.362 190.086 327.362C185.181 327.362 181.591 326.277 179.079 324.354C176.716 322.513 175.406 319.721 175.406 315.585V307.176C175.406 303.291 176.714 300.583 179.167 298.716L179.173 298.712L179.179 298.707C181.771 296.707 185.353 295.599 190.136 295.599C194.987 295.599 198.68 296.623 201.392 298.479L201.399 298.483L201.405 298.488C203.709 300.04 204.841 301.732 205.136 303.585H195.213ZM231.757 327.648C232.157 328.549 232.875 329 233.909 329H244.171C244.471 329 244.721 328.9 244.921 328.7C245.155 328.466 245.272 328.232 245.272 327.999C245.272 327.765 245.222 327.548 245.122 327.348L238.965 315.935C242.569 313.633 244.371 310.479 244.371 306.475C244.371 302.437 243.019 299.35 240.316 297.215C237.613 295.045 233.859 293.961 229.054 293.961H214.237C213.87 293.961 213.553 294.094 213.286 294.361C213.019 294.628 212.886 294.945 212.886 295.312V327.648C212.886 328.016 213.019 328.333 213.286 328.6C213.553 328.867 213.87 329 214.237 329H224.048C224.415 329 224.732 328.867 224.999 328.6C225.266 328.333 225.4 328.016 225.4 327.648V318.088H227.452L231.757 327.648ZM242.429 326.861L236.139 315.203L237.813 314.133C240.852 312.191 242.232 309.692 242.232 306.475C242.232 302.965 241.088 300.55 238.99 298.893L238.984 298.888L238.978 298.883C236.778 297.117 233.558 296.1 229.054 296.1H215.024V326.861H223.261V315.949H228.834L233.711 326.78C233.725 326.811 233.737 326.833 233.746 326.849C233.776 326.854 233.829 326.861 233.909 326.861H242.429ZM223.261 301.133H229.054C230.407 301.133 231.687 301.674 232.509 302.896C233.186 303.825 233.495 304.899 233.495 306.024C233.495 307.17 233.173 308.279 232.426 309.212L232.403 309.241L232.379 309.268C231.494 310.302 230.28 310.716 229.054 310.716H223.261V301.133ZM230.756 304.122C230.389 303.555 229.821 303.271 229.054 303.271H225.4V308.577H229.054C229.788 308.577 230.355 308.344 230.756 307.876C231.156 307.376 231.356 306.759 231.356 306.024C231.356 305.29 231.156 304.656 230.756 304.122ZM277.868 297.215C274.831 294.712 270.793 293.46 265.754 293.46C260.715 293.46 256.661 294.695 253.59 297.164C250.554 299.634 249.035 303.138 249.035 307.676V315.485C249.035 320.057 250.537 323.544 253.54 325.947C256.577 328.316 260.648 329.501 265.754 329.501C270.86 329.501 274.914 328.316 277.918 325.947C280.954 323.544 282.473 320.057 282.473 315.485V307.676C282.473 303.171 280.938 299.684 277.868 297.215ZM254.866 324.268C257.42 326.256 260.976 327.362 265.754 327.362C270.54 327.362 274.076 326.253 276.593 324.267C279.02 322.346 280.334 319.534 280.334 315.485V307.676C280.334 303.714 279.016 300.883 276.527 298.881L276.517 298.873L276.507 298.865C273.95 296.758 270.439 295.599 265.754 295.599C261.067 295.599 257.53 296.742 254.936 298.827C252.484 300.823 251.174 303.669 251.174 307.676V315.485C251.174 319.538 252.475 322.35 254.866 324.268ZM265.754 321.878C264.175 321.878 262.686 321.398 261.539 320.251C260.32 319.032 259.911 317.365 259.911 315.685V307.276C259.911 305.62 260.324 303.987 261.52 302.779C262.659 301.594 264.152 301.082 265.754 301.082C267.356 301.082 268.849 301.594 269.988 302.779C271.184 303.987 271.597 305.62 271.597 307.276V315.685C271.597 317.365 271.188 319.032 269.969 320.251C268.822 321.398 267.333 321.878 265.754 321.878ZM268.457 304.272C269.124 304.94 269.458 305.941 269.458 307.276V315.685C269.458 317.053 269.124 318.071 268.457 318.739C267.79 319.406 266.889 319.74 265.754 319.74C264.619 319.74 263.718 319.406 263.051 318.739C262.384 318.071 262.05 317.053 262.05 315.685V307.276C262.05 305.941 262.384 304.94 263.051 304.272C263.718 303.572 264.619 303.221 265.754 303.221C266.889 303.221 267.79 303.572 268.457 304.272ZM291.073 327.098C291.14 327.598 291.373 328.049 291.774 328.449C292.207 328.816 292.741 329 293.375 329H300.533C301.568 329 302.252 328.549 302.586 327.648L306.69 317.387L310.795 327.648C311.129 328.549 311.813 329 312.847 329H320.005C320.639 329 321.156 328.816 321.557 328.449C321.991 328.049 322.241 327.598 322.308 327.098L326.913 295.212V295.062C326.913 294.762 326.796 294.512 326.563 294.311C326.362 294.078 326.112 293.961 325.812 293.961H316.501C315.4 293.961 314.799 294.411 314.699 295.312L312.997 309.378L310.945 303.171C310.611 302.203 310.044 301.72 309.243 301.72H304.137C303.337 301.72 302.769 302.203 302.436 303.171L300.383 309.428L298.681 295.312C298.581 294.411 297.981 293.961 296.879 293.961H287.569C287.269 293.961 287.002 294.078 286.768 294.311C286.568 294.512 286.468 294.762 286.468 295.062V295.212L291.073 327.098ZM288.757 296.1H296.622L298.26 309.684L302.416 310.095L304.461 303.858H308.92C308.921 303.862 308.922 303.865 308.923 303.868L310.967 310.05L315.121 309.635L316.758 296.1H324.624L320.192 326.785C320.189 326.789 320.186 326.794 320.181 326.8C320.171 326.812 320.155 326.83 320.134 326.851C320.112 326.856 320.071 326.861 320.005 326.861H312.847C312.823 326.861 312.802 326.861 312.783 326.86L306.69 311.628L300.598 326.86C300.579 326.861 300.558 326.861 300.533 326.861H293.375C293.285 326.861 293.232 326.851 293.207 326.843C293.201 326.835 293.198 326.83 293.197 326.827C293.195 326.823 293.194 326.821 293.194 326.82C293.193 326.818 293.193 326.817 293.193 326.815L293.191 326.804L288.757 296.1ZM316.825 295.547C316.825 295.547 316.825 295.548 316.825 295.549Z" fill="white"/>
<path fill-rule="evenodd" clip-rule="evenodd" d="M377.598 297.014C374.528 299.35 372.993 302.737 372.993 307.176V315.585C372.993 320.224 374.495 323.711 377.498 326.047C380.501 328.349 384.606 329.501 389.812 329.501C395.051 329.501 399.239 328.316 402.376 325.947C405.513 323.544 407.081 320.14 407.081 315.735V309.228C407.081 308.861 406.948 308.544 406.681 308.277C406.414 308.01 406.097 307.876 405.73 307.876H391.964C391.597 307.876 391.28 308.01 391.013 308.277C390.746 308.544 390.613 308.861 390.613 309.228V314.784C390.613 315.151 390.746 315.468 391.013 315.735C391.28 316.002 391.597 316.136 391.964 316.136H394.317C394.317 317.006 394.133 317.719 393.765 318.274C393.117 319.251 391.899 319.74 390.112 319.74C387.376 319.74 386.008 318.321 386.008 315.485V306.975C386.008 304.473 387.292 303.221 389.862 303.221C390.496 303.221 391.197 303.371 391.964 303.672C392.298 303.805 392.798 304.306 393.466 305.173C393.766 305.54 394.25 305.724 394.918 305.724H405.98C406.28 305.724 406.53 305.624 406.731 305.424C406.964 305.19 407.081 304.923 407.081 304.623C407.081 301.486 405.496 298.85 402.326 296.714C399.156 294.545 395.001 293.46 389.862 293.46C384.756 293.46 380.668 294.645 377.598 297.014ZM394.939 303.585C394.653 303.228 394.373 302.906 394.102 302.635C393.807 302.34 393.346 301.921 392.759 301.686L392.751 301.683L392.744 301.68C391.799 301.31 390.829 301.082 389.862 301.082C388.261 301.082 386.665 301.472 385.479 302.628C384.282 303.794 383.869 305.38 383.869 306.975V315.485C383.869 317.214 384.285 318.907 385.494 320.161C386.718 321.429 388.394 321.878 390.112 321.878C391.77 321.878 393.412 321.53 394.658 320.463C395.966 319.341 396.456 317.76 396.456 316.136V313.997H392.751V310.015H404.942V315.735C404.942 319.559 403.62 322.297 401.081 324.244C398.422 326.25 394.736 327.362 389.812 327.362C384.906 327.362 381.317 326.277 378.805 324.354C376.441 322.513 375.132 319.721 375.132 315.585V307.176C375.132 303.291 376.439 300.583 378.893 298.716L378.899 298.712L378.905 298.707C381.497 296.707 385.079 295.599 389.862 295.599C394.713 295.599 398.406 296.623 401.118 298.479L401.124 298.483L401.131 298.488C403.435 300.04 404.566 301.732 404.862 303.585H394.939ZM440.443 297.215C437.406 294.712 433.368 293.46 428.329 293.46C423.29 293.46 419.236 294.695 416.165 297.164C413.129 299.634 411.61 303.138 411.61 307.676V315.485C411.61 320.057 413.112 323.544 416.115 325.947C419.152 328.316 423.223 329.501 428.329 329.501C433.435 329.501 437.489 328.316 440.493 325.947C443.529 323.544 445.048 320.057 445.048 315.485V307.676C445.048 303.171 443.513 299.684 440.443 297.215ZM417.441 324.268C419.995 326.256 423.551 327.362 428.329 327.362C433.115 327.362 436.651 326.253 439.168 324.267C441.595 322.346 442.909 319.534 442.909 315.485V307.676C442.909 303.714 441.591 300.883 439.102 298.881L439.092 298.873L439.082 298.865C436.525 296.758 433.013 295.599 428.329 295.599C423.642 295.599 420.105 296.743 417.51 298.828C415.059 300.823 413.749 303.669 413.749 307.676V315.485C413.749 319.538 415.05 322.35 417.441 324.268ZM428.329 321.878C426.75 321.878 425.261 321.398 424.114 320.251C422.895 319.032 422.486 317.365 422.486 315.685V307.276C422.486 305.62 422.899 303.987 424.095 302.779C425.234 301.594 426.727 301.082 428.329 301.082C429.931 301.082 431.424 301.594 432.563 302.779C433.759 303.987 434.172 305.62 434.172 307.276V315.685C434.172 317.365 433.763 319.032 432.544 320.251C431.397 321.398 429.908 321.878 428.329 321.878ZM431.032 304.272C431.699 304.94 432.033 305.941 432.033 307.276V315.685C432.033 317.053 431.699 318.071 431.032 318.739C430.365 319.406 429.464 319.74 428.329 319.74C427.194 319.74 426.293 319.406 425.626 318.739C424.959 318.071 424.625 317.053 424.625 315.685V307.276C424.625 305.941 424.959 304.94 425.626 304.272C426.293 303.572 427.194 303.221 428.329 303.221C429.464 303.221 430.365 303.572 431.032 304.272Z" fill="white"/>
<path fill-rule="evenodd" clip-rule="evenodd" d="M496.461 297.014C493.391 299.35 491.856 302.737 491.856 307.176V315.585C491.856 320.224 493.358 323.711 496.361 326.047C499.365 328.349 503.469 329.501 508.675 329.501C513.914 329.501 518.102 328.316 521.239 325.947C524.376 323.544 525.944 320.14 525.944 315.735V309.228C525.944 308.861 525.811 308.544 525.544 308.277C525.277 308.01 524.96 307.876 524.593 307.876H510.827C510.46 307.876 510.143 308.01 509.876 308.277C509.609 308.544 509.476 308.861 509.476 309.228V314.784C509.476 315.151 509.609 315.468 509.876 315.735C510.143 316.002 510.46 316.136 510.827 316.136H513.18C513.18 317.006 512.996 317.719 512.628 318.274C511.98 319.251 510.763 319.74 508.975 319.74C506.239 319.74 504.871 318.321 504.871 315.485V306.975C504.871 304.473 506.155 303.221 508.725 303.221C509.359 303.221 510.06 303.371 510.827 303.672C511.161 303.805 511.662 304.306 512.329 305.173C512.629 305.54 513.113 305.724 513.781 305.724H524.843C525.143 305.724 525.394 305.624 525.594 305.424C525.827 305.19 525.944 304.923 525.944 304.623C525.944 301.486 524.359 298.85 521.189 296.714C518.019 294.545 513.864 293.46 508.725 293.46C503.619 293.46 499.531 294.645 496.461 297.014ZM513.802 303.585C513.516 303.228 513.236 302.906 512.965 302.635C512.67 302.34 512.209 301.921 511.622 301.686L511.614 301.683L511.607 301.68C510.662 301.31 509.692 301.082 508.725 301.082C507.124 301.082 505.529 301.472 504.342 302.628C503.145 303.794 502.732 305.38 502.732 306.975V315.485C502.732 317.214 503.148 318.907 504.358 320.161C505.581 321.429 507.258 321.878 508.975 321.878C510.633 321.878 512.275 321.53 513.521 320.463C514.83 319.341 515.319 317.76 515.319 316.136V313.997H511.615V310.015H523.805V315.735C523.805 319.559 522.483 322.297 519.944 324.244C517.285 326.25 513.599 327.362 508.675 327.362C503.77 327.362 500.18 326.277 497.668 324.354C495.305 322.513 493.995 319.721 493.995 315.585V307.176C493.995 303.291 495.303 300.583 497.756 298.716L497.762 298.712L497.768 298.707C500.36 296.707 503.942 295.599 508.725 295.599C513.576 295.599 517.269 296.623 519.981 298.479L519.988 298.483L519.994 298.488C522.298 300.04 523.43 301.732 523.725 303.585H513.802ZM542.25 326.861V296.1H533.613V326.861H542.25ZM582.867 294.311C582.667 294.078 582.416 293.961 582.116 293.961H572.806C571.604 293.961 570.853 294.511 570.553 295.613L565.798 314.234L561.042 295.613C560.742 294.511 559.991 293.961 558.79 293.961H549.479C549.179 293.961 548.912 294.078 548.679 294.311C548.478 294.512 548.378 294.712 548.378 294.912C548.378 295.112 548.395 295.279 548.428 295.413L557.839 327.348C558.139 328.449 558.89 329 560.091 329H571.504C572.705 329 573.456 328.449 573.757 327.348L583.167 295.413C583.2 295.279 583.217 295.112 583.217 294.912C583.217 294.712 583.1 294.512 582.867 294.311ZM580.735 296.1H572.806C572.731 296.1 572.676 296.104 572.637 296.11C572.631 296.125 572.626 296.142 572.62 296.163L567.87 314.763H563.725L558.976 296.163C558.97 296.142 558.964 296.125 558.959 296.11C558.92 296.104 558.864 296.1 558.79 296.1H550.86L559.896 326.764L559.902 326.785C559.909 326.811 559.916 326.833 559.922 326.851C559.962 326.857 560.017 326.861 560.091 326.861H571.504C571.578 326.861 571.634 326.857 571.673 326.851C571.679 326.833 571.686 326.811 571.693 326.785L571.699 326.764L580.735 296.1ZM615.182 303.321C615.449 303.054 615.583 302.737 615.583 302.37V295.312C615.583 294.945 615.449 294.628 615.182 294.361C614.915 294.094 614.598 293.961 614.231 293.961H588.552C588.185 293.961 587.868 294.094 587.601 294.361C587.334 294.628 587.201 294.945 587.201 295.312V327.648C587.201 328.016 587.334 328.333 587.601 328.6C587.868 328.867 588.185 329 588.552 329H614.632C614.999 329 615.316 328.867 615.583 328.6C615.85 328.333 615.983 328.016 615.983 327.648V320.591C615.983 320.224 615.85 319.907 615.583 319.64C615.316 319.373 614.999 319.239 614.632 319.239H599.214V316.086H613.13C613.497 316.086 613.814 315.952 614.081 315.685C614.348 315.418 614.481 315.101 614.481 314.734V308.227C614.481 307.86 614.348 307.543 614.081 307.276C613.814 307.009 613.497 306.875 613.13 306.875H599.214V303.722H614.231C614.598 303.722 614.915 303.588 615.182 303.321ZM597.076 321.378V313.947H612.343V309.014H597.076V301.583H613.444V296.1H589.34V326.861H613.844V321.378H597.076ZM532.826 329H543.038C543.405 329 543.722 328.867 543.989 328.6C544.256 328.333 544.389 328.016 544.389 327.648V295.312C544.389 294.945 544.256 294.628 543.989 294.361C543.722 294.094 543.405 293.961 543.038 293.961H532.826C532.459 293.961 532.142 294.094 531.875 294.361C531.608 294.628 531.475 294.945 531.475 295.312V327.648C531.475 328.016 531.608 328.333 531.875 328.6C532.142 328.867 532.459 329 532.826 329Z" fill="white"/>
</svg>
