<svg width="167" height="79" viewBox="0 0 167 79" fill="none" xmlns="http://www.w3.org/2000/svg">
<path d="M12.7838 53.2639L9.80763 52.5532V60.3709C9.80763 60.3709 9.79238 61.162 9.67423 61.6502C9.59139 61.9924 9.23907 62.7873 9.23907 62.7873C9.23907 62.7873 7.78051 65.9712 8.23535 69.61C8.6902 73.2487 11.1729 76.4327 12.3574 77.5698C13.3808 77.2286 14.9633 73.0687 15.6266 71.0314C15.3897 71.1261 14.6885 70.8039 13.7788 68.7571C12.8691 66.7103 12.7364 63.2611 12.7838 61.7923V53.2639Z" fill="#DA251C"/>
<path d="M22.7336 51.9846C19.436 53.9177 15.4845 53.9272 13.921 53.6903C13.8262 56.0593 13.6936 61.3659 13.921 63.6401C14.2053 66.4829 16.9059 69.0414 17.3323 69.1835C17.6735 69.2972 18.8011 68.2833 19.3223 67.7621V64.3508L22.0229 61.0816C22.5915 59.3759 21.9756 58.2862 21.5965 57.9545C18.9811 59.8876 18.1378 59.8971 18.043 59.6602V58.2388C18.1378 58.2388 18.7253 57.9545 20.3173 56.8174C21.9092 55.6803 22.5915 54.3536 22.7336 53.8325V51.9846Z" fill="#DA251C"/>
<path d="M18.043 20.0033C12.4711 10.5652 12.9733 2.99392 13.9209 0.388031C13.2576 0.81445 11.1066 3.96995 7.80893 13.1806C4.51129 22.3912 5.96111 33.0327 7.09823 37.2022C7.80893 39.0974 8.94604 42.8877 7.80893 42.8877C6.38753 42.8877 5.67683 41.3242 4.824 38.1971C4.14174 35.6955 3.97116 25.9731 3.97116 21.4247C3.49736 22.5618 2.15177 26.5133 0.559806 33.2223C-1.43015 41.6085 2.26548 49.4262 5.67683 53.8325C8.40591 57.3576 8.70914 60.6078 8.51962 61.7923C9.51459 59.0917 8.94603 53.9746 8.51962 52.5532C8.17848 51.4161 9.32507 51.0371 9.94101 50.9897C11.2676 51.4635 14.6032 52.3542 17.3323 52.1268C20.7436 51.8425 25.7185 51.274 26.4292 41.8928C27.1399 32.5116 25.0078 31.8009 18.043 20.0033Z" fill="#DA251C"/>
<path d="M47.5572 68.7615V73.529H44.443V68.723L39.2333 60.0723H42.5398L46.1347 66.0509L49.7295 60.0723H52.7861L47.5572 68.7615ZM64.3771 71.0299V73.529H53.9578V60.0723H64.1272V62.5714H57.0528V65.4934H63.3006V67.9156H57.0528V71.0299H64.3771ZM66.855 60.0723H69.9693V70.9914H76.7169V73.529H66.855V60.0723ZM87.4318 70.6454H81.184L79.9921 73.529H76.801L82.7988 60.0723H85.8747L91.8917 73.529H88.6237L87.4318 70.6454ZM86.4514 68.2809L84.3175 63.1289L82.1837 68.2809H86.4514ZM105.63 60.0723V73.529H102.515V68.0117H96.4021V73.529H93.2879V60.0723H96.4021V65.3781H102.515V60.0723H105.63ZM117.676 70.6454H111.428L110.236 73.529H107.045L113.043 60.0723H116.118L122.136 73.529H118.868L117.676 70.6454ZM116.695 68.2809L114.561 63.1289L112.428 68.2809H116.695ZM135.873 60.0723V73.529H133.317L126.608 65.3588V73.529H123.532V60.0723H126.108L132.798 68.2424V60.0723H135.873ZM143.959 68.2424L142.152 70.1264V73.529H139.057V60.0723H142.152V66.3585L148.112 60.0723H151.572L145.997 66.0701L151.899 73.529H148.265L143.959 68.2424ZM161.549 70.6454H155.301L154.109 73.529H150.918L156.916 60.0723H159.992L166.009 73.529H162.741L161.549 70.6454ZM160.568 68.2809L158.435 63.1289L156.301 68.2809H160.568Z" fill="white"/>
<path d="M55.8593 6.60854V24H52.5549L43.884 13.4409V24H39.9088V6.60854H43.238L51.8841 17.1676V6.60854H55.8593ZM73.44 20.7702V24H59.974V6.60854H73.117V9.83839H63.974V13.6148H72.0486V16.7453H63.974V20.7702H73.44ZM102.686 6.60854L96.9963 24H92.6732L88.8471 12.2235L84.8968 24H80.5986L74.8843 6.60854H79.0582L82.9837 18.8323L87.0831 6.60854H90.8099L94.7851 18.9316L98.8348 6.60854H102.686ZM112.333 6.60854H116.358V20.7205H125.078V24H112.333V6.60854ZM127.327 6.60854H131.352V24H127.327V6.60854ZM139.504 9.83839V14.4347H147.554V17.6645H139.504V24H135.479V6.60854H148.622V9.83839H139.504ZM164.813 20.7702V24H151.347V6.60854H164.49V9.83839H155.347V13.6148H163.422V16.7453H155.347V20.7702H164.813Z" fill="white"/>
<path d="M42.3466 39.0162V42.4141H48.2976V44.8019H42.3466V49.4855H39.3712V36.6285H49.0874V39.0162H42.3466ZM61.0568 47.0978V49.4855H51.1018V36.6285H60.818V39.0162H54.0589V41.808H60.0282V44.1223H54.0589V47.0978H61.0568ZM63.4243 36.6285H66.3998V47.061H72.8467V49.4855H63.4243V36.6285ZM74.5092 36.6285H77.4847V47.061H83.9316V49.4855H74.5092V36.6285ZM91.6054 49.7059C90.2707 49.7059 89.0646 49.4182 87.987 48.8427C86.9217 48.2671 86.083 47.4774 85.4707 46.4733C84.8707 45.457 84.5707 44.3182 84.5707 43.057C84.5707 41.7958 84.8707 40.6631 85.4707 39.659C86.083 38.6427 86.9217 37.8468 87.987 37.2713C89.0646 36.6958 90.2707 36.408 91.6054 36.408C92.94 36.408 94.14 36.6958 95.2053 37.2713C96.2706 37.8468 97.1094 38.6427 97.7216 39.659C98.3339 40.6631 98.64 41.7958 98.64 43.057C98.64 44.3182 98.3339 45.457 97.7216 46.4733C97.1094 47.4774 96.2706 48.2671 95.2053 48.8427C94.14 49.4182 92.94 49.7059 91.6054 49.7059ZM91.6054 47.1712C92.3645 47.1712 93.0503 46.9998 93.6625 46.657C94.2747 46.3019 94.7523 45.8121 95.0951 45.1876C95.4502 44.5631 95.6278 43.8529 95.6278 43.057C95.6278 42.2611 95.4502 41.5509 95.0951 40.9264C94.7523 40.3019 94.2747 39.8182 93.6625 39.4754C93.0503 39.1203 92.3645 38.9427 91.6054 38.9427C90.8462 38.9427 90.1605 39.1203 89.5482 39.4754C88.936 39.8182 88.4523 40.3019 88.0972 40.9264C87.7544 41.5509 87.5829 42.2611 87.5829 43.057C87.5829 43.8529 87.7544 44.5631 88.0972 45.1876C88.4523 45.8121 88.936 46.3019 89.5482 46.657C90.1605 46.9998 90.8462 47.1712 91.6054 47.1712ZM119.878 36.6285L115.672 49.4855H112.476L109.648 40.7794L106.727 49.4855H103.55L99.3253 36.6285H102.411L105.313 45.6651L108.344 36.6285H111.099L114.037 45.7386L117.031 36.6285H119.878ZM125.764 49.7059C124.747 49.7059 123.762 49.5712 122.807 49.3018C121.864 49.0202 121.105 48.659 120.529 48.2182L121.539 45.9774C122.09 46.3814 122.745 46.7059 123.505 46.9508C124.264 47.1957 125.023 47.3182 125.782 47.3182C126.627 47.3182 127.252 47.1957 127.656 46.9508C128.06 46.6937 128.262 46.357 128.262 45.9406C128.262 45.6345 128.139 45.3835 127.894 45.1876C127.662 44.9794 127.356 44.8141 126.976 44.6917C126.609 44.5692 126.107 44.4345 125.47 44.2876C124.49 44.0549 123.688 43.8223 123.064 43.5896C122.439 43.357 121.901 42.9835 121.447 42.4692C121.007 41.9549 120.786 41.2692 120.786 40.4121C120.786 39.6652 120.988 38.9917 121.392 38.3917C121.796 37.7795 122.403 37.2958 123.211 36.9407C124.031 36.5856 125.029 36.408 126.205 36.408C127.025 36.408 127.827 36.506 128.611 36.7019C129.394 36.8978 130.08 37.1795 130.668 37.5468L129.749 39.806C128.562 39.1325 127.374 38.7958 126.186 38.7958C125.354 38.7958 124.735 38.9305 124.331 39.1999C123.939 39.4692 123.743 39.8243 123.743 40.2652C123.743 40.706 123.97 41.0366 124.423 41.257C124.888 41.4652 125.592 41.6733 126.535 41.8815C127.515 42.1141 128.317 42.3468 128.941 42.5794C129.566 42.8121 130.098 43.1794 130.539 43.6815C130.992 44.1835 131.219 44.8631 131.219 45.7202C131.219 46.4549 131.011 47.1284 130.594 47.7406C130.19 48.3406 129.578 48.8182 128.758 49.1733C127.937 49.5284 126.939 49.7059 125.764 49.7059ZM145.044 36.6285V49.4855H142.068V44.2141H136.228V49.4855H133.252V36.6285H136.228V41.6978H142.068V36.6285H145.044ZM148.086 36.6285H151.061V49.4855H148.086V36.6285ZM159.678 36.6285C160.816 36.6285 161.802 36.8182 162.635 37.1978C163.48 37.5774 164.129 38.1162 164.582 38.8142C165.035 39.5121 165.261 40.3386 165.261 41.2937C165.261 42.2366 165.035 43.0631 164.582 43.7733C164.129 44.4713 163.48 45.01 162.635 45.3896C161.802 45.757 160.816 45.9406 159.678 45.9406H157.088V49.4855H154.112V36.6285H159.678ZM159.512 43.5162C160.406 43.5162 161.086 43.3264 161.551 42.9468C162.016 42.5549 162.249 42.0039 162.249 41.2937C162.249 40.5713 162.016 40.0203 161.551 39.6407C161.086 39.2488 160.406 39.0529 159.512 39.0529H157.088V43.5162H159.512Z" fill="white"/>
</svg>
