<svg width="212" height="212" viewBox="0 0 212 212" fill="none" xmlns="http://www.w3.org/2000/svg">
<path d="M104.656 144.345L96.5881 142.418V163.612C96.5881 163.612 96.5467 165.756 96.2264 167.08C96.0018 168.008 95.0467 170.162 95.0467 170.162C95.0467 170.162 91.0926 178.794 92.3257 188.658C93.5588 198.523 100.289 207.155 103.5 210.237C106.275 209.312 110.565 198.035 112.363 192.512C111.721 192.769 109.82 191.895 107.354 186.346C104.888 180.798 104.528 171.447 104.656 167.465V144.345Z" fill="#DA251C"/>
<path d="M131.63 140.877C122.69 146.117 111.978 146.143 107.739 145.501C107.482 151.923 107.123 166.309 107.739 172.474C108.51 180.181 115.831 187.117 116.987 187.502C117.912 187.811 120.969 185.062 122.382 183.649V174.401L129.703 165.538C131.245 160.914 129.575 157.96 128.547 157.061C121.457 162.301 119.171 162.327 118.914 161.685V157.831C119.171 157.831 120.763 157.061 125.079 153.978C129.395 150.895 131.245 147.299 131.63 145.886V140.877Z" fill="#DA251C"/>
<path d="M118.914 54.1763C103.809 28.59 105.17 8.06448 107.739 1C105.941 2.15601 100.11 10.7105 91.1697 35.6802C82.23 60.6499 86.1604 89.4987 89.2431 100.802C91.1697 105.94 94.2524 116.215 91.1697 116.215C87.3164 116.215 85.3897 111.977 83.0777 103.499C81.2281 96.7173 80.7657 70.3604 80.7657 58.0296C79.4812 61.1123 75.8334 71.8246 71.5176 90.0125C66.1229 112.747 76.1416 133.941 85.3897 145.886C92.7881 155.442 93.6102 164.254 93.0964 167.465C95.7937 160.144 94.2524 146.271 93.0964 142.418C92.1716 139.335 95.28 138.308 96.9497 138.179C100.546 139.464 109.589 141.879 116.987 141.262C126.235 140.491 139.722 138.95 141.649 113.518C143.575 88.0858 137.795 86.1591 118.914 54.1763Z" fill="#DA251C"/>
</svg>
