<svg width="512" height="512" viewBox="0 0 512 512" fill="none" xmlns="http://www.w3.org/2000/svg">
<path d="M498.983 512V367.564C498.992 354.426 494.028 341.764 485.098 332.132L422.565 263.073C415.978 255.801 406.624 251.653 396.809 251.661H351.458V512H498.983Z" fill="#FEC9A3"/>
<path d="M420.881 399.186L351.458 329.763V512H420.881V399.186Z" fill="#F7B483"/>
<path d="M360.272 69.4241H186.712C167.542 69.4241 152 84.9661 152 104.136V468.61C152 487.78 167.542 503.322 186.712 503.322H360.271C379.441 503.322 394.983 487.78 394.983 468.61V104.136C394.983 84.9661 379.441 69.4241 360.272 69.4241Z" fill="#505050"/>
<path d="M394.847 121.492H151.864V451.255H394.847V121.492Z" fill="#DDDDDD"/>
<path d="M151.864 390.508V451.254H394.847V147.525L151.864 390.508Z" fill="black" fill-opacity="0.05"/>
<path d="M312.657 164.683C317.262 164.683 321 160.946 321 156.342C321 151.737 317.262 148 312.657 148H240.347C235.741 148 232.003 151.737 232.003 156.342C232.003 160.946 235.741 164.683 240.347 164.683H265.377C274.166 164.683 281.53 170.577 283.934 178.584H240.347C235.741 178.584 232.003 182.321 232.003 186.926C232.003 191.53 235.741 195.268 240.347 195.268H281.308C277.782 200.296 271.962 203.609 265.377 203.609H240.347C236.688 203.609 233.45 206.002 232.372 209.493C231.292 212.985 232.616 216.779 235.641 218.846L296.827 260.554C298.272 261.534 299.897 262 301.521 262C304.191 262 306.817 260.733 308.43 258.363C311.011 254.548 310.043 249.355 306.238 246.763L267.324 220.237C282.51 219.437 295.092 209.148 299.618 195.268H312.657C317.262 195.268 321 191.53 321 186.926C321 182.321 317.262 178.584 312.657 178.584H300.965C300.174 173.536 298.406 168.819 295.748 164.683H312.657Z" fill="black" fill-opacity="0.2"/>
<path d="M28.034 257H253.661C268.04 257 279.695 268.655 279.695 283.034V404.526C279.695 418.905 268.041 430.56 253.661 430.56H28.034C13.655 430.56 2 418.905 2 404.526V283.034C2 268.655 13.654 257 28.034 257Z" fill="url(#paint0_linear)"/>
<path d="M201.593 387.17C211.179 387.17 218.949 379.399 218.949 369.814C218.949 360.229 211.179 352.458 201.593 352.458C192.008 352.458 184.237 360.229 184.237 369.814C184.237 379.399 192.008 387.17 201.593 387.17Z" fill="black" fill-opacity="0.4"/>
<path d="M184.237 291.712H28.0341V309.068H184.237V291.712Z" fill="white" fill-opacity="0.2"/>
<path d="M45.3901 343.78H28.0341V361.136H45.3901V343.78Z" fill="white" fill-opacity="0.2"/>
<path d="M80.1021 343.78H62.7461V361.136H80.1021V343.78Z" fill="white" fill-opacity="0.2"/>
<path d="M114.814 343.78H97.458V361.136H114.814V343.78Z" fill="white" fill-opacity="0.2"/>
<path d="M149.525 343.78H132.169V361.136H149.525V343.78Z" fill="white" fill-opacity="0.2"/>
<path d="M149.526 378.492H28.0341V395.848H149.526V378.492Z" fill="white" fill-opacity="0.2"/>
<path d="M227.627 387.17C237.212 387.17 244.983 379.399 244.983 369.814C244.983 360.229 237.212 352.458 227.627 352.458C218.042 352.458 210.271 360.229 210.271 369.814C210.271 379.399 218.042 387.17 227.627 387.17Z" fill="white" fill-opacity="0.5"/>
<path d="M279.85 98.9999C278.132 98.9999 276.457 99.5029 275.034 100.458L249 117.814L258.633 132.254L271.173 123.897V142.39H288.528V123.897L301.068 132.254L310.701 117.814L284.667 100.458C283.243 99.5029 281.568 98.9999 279.85 98.9999Z" fill="#E85509"/>
<path d="M446.915 407.864L360.248 313.977C350.98 303.937 335.334 303.303 325.284 312.571C325.032 312.797 324.789 313.031 324.555 313.274C315.287 322.542 314.853 337.416 323.557 347.214L377.491 407.864C367.025 439.27 376.866 473.877 402.301 495.069L420.881 512H446.915V407.864V407.864Z" fill="#FEC9A3"/>
<path d="M438.237 399.186C435.937 399.186 433.724 398.275 432.102 396.643L388.712 353.253C385.38 349.808 385.475 344.315 388.92 340.982C392.287 337.736 397.615 337.736 400.982 340.982L444.372 384.372C447.756 387.765 447.756 393.258 444.372 396.643C442.741 398.275 440.537 399.186 438.237 399.186Z" fill="#F7B483"/>
<circle cx="273.5" cy="476.5" r="17.5" fill="black"/>
<defs>
<linearGradient id="paint0_linear" x1="9.48303" y1="263.5" x2="242.983" y2="421.5" gradientUnits="userSpaceOnUse">
<stop stop-color="#DA251C"/>
<stop offset="1" stop-color="#EF6C00"/>
</linearGradient>
</defs>
</svg>
